<svg width="16" height="16" viewBox="0 0 16 16" fill="none" xmlns="http://www.w3.org/2000/svg">
<g clip-path="url(#clip0_1_513)">
<path fill-rule="evenodd" clip-rule="evenodd" d="M7.98439 0.960022C7.85189 0.966897 7.73688 1.0544 7.69563 1.18065L6.08939 6.00001H0.945073V6.00063C0.806948 6.00063 0.684449 6.08938 0.641953 6.22063C0.598828 6.35188 0.645078 6.49564 0.755703 6.57814L4.93442 9.63382L3.32818 14.6213V14.6207C3.28506 14.7532 3.33256 14.8976 3.44506 14.9788C3.55756 15.0607 3.70943 15.0601 3.82131 14.9782L8.00003 11.9225L12.1788 14.9782C12.2906 15.0601 12.4425 15.0607 12.555 14.9788C12.6675 14.8976 12.715 14.7532 12.6719 14.6207L11.0656 9.63319L15.2444 6.57751V6.57814C15.355 6.49564 15.4012 6.35188 15.3581 6.22063C15.3156 6.08938 15.1931 6.00063 15.055 6.00063H9.91068L8.30444 1.18127V1.18065C8.26006 1.04377 8.1288 0.953142 7.98444 0.960022H7.98439ZM8.00001 2.29377L9.37564 6.42001V6.42063C9.41814 6.55188 9.54127 6.64126 9.68001 6.64063H14.0738L10.4987 9.25503V9.25566C10.3875 9.33691 10.3406 9.48065 10.3831 9.61254L11.7587 13.8807L8.1893 11.2713H8.18867C8.07617 11.1888 7.92368 11.1888 7.81117 11.2713L4.24173 13.8807L5.61736 9.61254H5.61673C5.65923 9.48066 5.61236 9.3369 5.50111 9.25566L1.92607 6.64126H6.31983V6.64063C6.45858 6.64126 6.5817 6.55188 6.6242 6.42063L7.99983 2.29439L8.00001 2.29377Z" fill="#E9B200"/>
</g>
<defs>
<clipPath id="clip0_1_513">
<rect width="16" height="16" fill="white"/>
</clipPath>
</defs>
</svg>
