<svg width="16" height="16" viewBox="0 0 16 16" fill="none" xmlns="http://www.w3.org/2000/svg">
<path fill-rule="evenodd" clip-rule="evenodd" d="M7.98572 1.28754C7.85197 1.29317 7.73572 1.38129 7.69447 1.50879L6.18759 6.17999L1.28071 6.16999C1.14196 6.16999 1.01821 6.25937 0.975716 6.39124C0.932591 6.52374 0.980091 6.66812 1.09259 6.74999L5.06891 9.62679L3.54203 14.293C3.49891 14.4249 3.54578 14.5699 3.65828 14.6512C3.77016 14.733 3.92265 14.733 4.03454 14.6512L7.9995 11.758L11.9657 14.6512C12.0776 14.733 12.2301 14.733 12.342 14.6512C12.4545 14.5699 12.5014 14.4249 12.4582 14.293L10.9314 9.62679L14.9077 6.74999C15.0202 6.66812 15.0677 6.52374 15.0246 6.39124C14.9814 6.25936 14.8583 6.16999 14.7196 6.17062L9.81269 6.18062L8.30393 1.50942V1.50879C8.25956 1.37192 8.12957 1.28191 7.98581 1.28754L7.98572 1.28754Z" fill="#E9B200"/>
</svg>
