<svg width="40" height="40" viewBox="0 0 40 40" fill="none" xmlns="http://www.w3.org/2000/svg">
<circle opacity="0.1" cx="20" cy="20" r="20" fill="#DF18FF"/>
<g clip-path="url(#clip0_1_961)">
<path d="M22.9978 18.6818C22.9978 18.8169 23.033 19.0913 23.1179 19.382C23.2033 19.6741 23.3347 19.9668 23.5183 20.1506L23.658 20.2902V20.4787C23.658 21.3878 23.3242 21.9833 22.8396 22.4055C22.3613 22.8221 21.7392 23.0665 21.1736 23.2853C20.8335 23.4364 20.5201 23.5392 20.196 23.7189L20.1091 23.7678L19.6941 23.0207L19.6433 22.9289L19.7361 22.882C20.1073 22.6959 20.4773 22.5482 20.8435 22.4016C21.433 22.1619 21.8844 21.9658 22.2 21.6984C22.501 21.4434 22.6801 21.1207 22.7205 20.6154C22.4858 20.3131 22.3319 19.94 22.2332 19.6076C22.1353 19.2782 22.0887 18.9831 22.0681 18.8264C21.6738 18.2107 21.4775 17.5764 21.5847 17.1027C21.4943 16.7472 21.4407 16.2789 21.5007 15.8215C21.5612 15.3616 21.7374 14.902 22.116 14.5871C22.35 13.9122 22.8424 13.4248 23.4773 13.1262L23.4812 13.1252L23.6697 13.0529C24.57 12.7425 25.7246 12.8105 26.7839 13.2473L27.0095 13.3469L27.0154 13.3488V13.3498L27.3455 13.5314L27.4207 13.5734L27.3904 13.6545L27.281 13.9474L27.28 13.9465C27.1113 14.4212 27.2441 14.7923 27.4265 15.2307H27.4255C27.6453 15.7441 27.8764 16.3912 27.5457 17.1887C27.6118 17.6207 27.4548 18.2459 27.0623 18.8605C27.0417 19.0173 26.9962 19.3129 26.8982 19.6428C26.7992 19.9758 26.6445 20.3499 26.4089 20.6525C26.4324 21.1564 26.6115 21.4785 26.9167 21.7336C27.2367 22.0008 27.6967 22.1971 28.2859 22.4367C28.8885 22.6743 29.5951 22.9555 30.1472 23.465C30.7046 23.9795 31.1003 24.7217 31.1003 25.8664V26.3332H23.5671V25.3996H30.1511C30.0643 24.7553 29.8036 24.3419 29.4373 24.0373C29.0442 23.7104 28.5283 23.5046 27.9568 23.2834C27.3912 23.0645 26.769 22.8201 26.2908 22.4035C25.8064 21.9814 25.4734 21.3855 25.4734 20.4767V20.2883L25.6121 20.1496C25.7948 19.9668 25.9175 19.6754 25.9988 19.382C26.0792 19.0915 26.1151 18.8132 26.1335 18.6672V18.5392L26.1501 18.5139L26.2214 18.4094C26.4181 18.0873 26.5245 17.8124 26.5769 17.6115C26.6031 17.5111 26.6158 17.4303 26.6199 17.3723C26.6219 17.3431 26.6211 17.3208 26.6199 17.3058C26.6184 17.2878 26.6164 17.2884 26.6208 17.2971V17.2961L26.5476 17.1496L26.5281 17.1096L26.5447 17.0676L26.6169 16.8849L26.6218 16.8742L26.6677 16.7814C26.8713 16.3243 26.7173 15.9778 26.5427 15.4885V15.4875C26.3665 15.0656 26.1855 14.5907 26.2712 13.9797C25.43 13.6482 24.5398 13.6259 23.8933 13.9318L23.8894 13.9338C23.4066 14.1409 23.1324 14.4824 22.9929 14.9689L22.9568 15.1135L22.948 15.1506L22.9158 15.1721L22.8064 15.2433C22.6047 15.3833 22.4914 15.6678 22.4558 16.006C22.4207 16.3403 22.4646 16.7019 22.5515 16.9631L22.5544 16.9699V16.9709L22.5906 17.1174L22.6003 17.1535L22.5837 17.1867L22.5144 17.3234C22.5114 17.3354 22.5081 17.3677 22.5125 17.424C22.517 17.4831 22.5302 17.562 22.5583 17.6594C22.6007 17.8057 22.6759 17.992 22.8015 18.2121L22.9441 18.4435L22.9509 18.4533H22.95L22.9871 18.5266L22.9978 18.548V18.6818Z" fill="#DF18FF" stroke="#DF18FF" stroke-width="0.2"/>
<path d="M16.2236 13.5213C16.8799 13.5213 17.4001 13.6619 17.8145 13.9061C18.2288 14.1504 18.532 14.4945 18.7588 14.8914C19.0967 15.4828 19.2696 16.1987 19.3965 16.8885L19.5127 17.5643V17.5652C19.6045 18.1535 19.6949 18.7139 19.8477 19.1815C20.0002 19.6481 20.2096 20.0059 20.5273 20.2078L20.8555 20.3895L20.9502 20.4422L20.8906 20.532L20.6699 20.8621C20.153 21.6366 19.0063 22.3594 17.8184 22.7059C18.2264 23.8936 19.2109 24.2406 20.2891 24.6356H20.29C20.9098 24.8544 21.5973 25.0984 22.127 25.5477C22.6634 26.0028 23.0332 26.6634 23.0332 27.7V28.1668H8.90039V27.7C8.9004 26.6633 9.26994 26.0028 9.81152 25.5477C10.3457 25.0988 11.0412 24.8549 11.6797 24.6365L12.0889 24.4842C13.0004 24.1322 13.7946 23.7126 14.1504 22.7059C12.9632 22.3591 11.8166 21.6372 11.3008 20.8631L11.0811 20.533L11.0205 20.4432L11.1152 20.3904L11.4395 20.2108L11.5596 20.1229C11.8224 19.9064 11.9727 19.6082 12.0615 19.2488C12.1639 18.8346 12.1826 18.35 12.2012 17.8338C12.2195 17.1783 12.2373 16.4262 12.4971 15.7791C12.7584 15.1282 13.2623 14.5872 14.2295 14.3377C14.5379 14.0321 15.1461 13.5214 16.2236 13.5213ZM16.2217 14.452C15.4196 14.452 15.0407 14.8311 14.7891 15.0828L14.6992 15.1727L14.6768 15.1805L14.5674 15.2166L14.5566 15.2205V15.2195C14.2282 15.2905 13.9811 15.4007 13.7939 15.5438C13.6076 15.6863 13.4757 15.866 13.3809 16.0838C13.1885 16.5258 13.1504 17.1197 13.1318 17.8748V17.8758C13.1139 18.3687 13.0958 18.9008 12.9834 19.3973C12.8778 19.8638 12.6851 20.3037 12.3291 20.659C12.8802 21.2062 13.8787 21.7455 14.8105 21.9178H14.8115L15.1787 21.991L15.2764 22.0106L15.2568 22.1082L15.1846 22.4754L15.1836 22.4774C14.9583 23.491 14.477 24.1355 13.8857 24.5848C13.4457 24.9191 12.9458 25.1438 12.4541 25.3358L11.9678 25.5203C11.4123 25.7243 10.924 25.8938 10.5527 26.159C10.2137 26.4012 9.97508 26.7233 9.8877 27.2332H22.0781C21.9907 26.7404 21.7532 26.4181 21.4141 26.1717C21.1355 25.9694 20.7902 25.8183 20.4014 25.6697L19.999 25.5203C19.3608 25.2831 18.6578 25.0306 18.0664 24.5848C17.4704 24.1354 16.9888 23.4911 16.7822 22.4764V22.4754L16.709 22.1082L16.6895 22.0106L16.7881 21.991L17.1553 21.9178H17.1562L17.3389 21.8797C18.2175 21.6745 19.1239 21.1683 19.6387 20.6561C19.3147 20.3019 19.1061 19.8555 18.958 19.368C18.7998 18.8471 18.7065 18.2719 18.6152 17.7049V17.7039C18.4316 16.6558 18.2597 15.8421 17.9189 15.2889C17.7505 15.0156 17.542 14.8086 17.2715 14.6688C17 14.5284 16.6593 14.452 16.2217 14.452Z" fill="#DF18FF" stroke="#DF18FF" stroke-width="0.2"/>
</g>
<defs>
<clipPath id="clip0_1_961">
<rect width="22" height="22" fill="white" transform="translate(9 9)"/>
</clipPath>
</defs>
</svg>
